<svg width="2131" height="1103" viewBox="0 0 2131 1103" fill="none" xmlns="http://www.w3.org/2000/svg">
<g filter="url(#filter0_i_424_5766)">
<rect width="2125.98" height="1094.88" rx="100" transform="matrix(0.999994 -0.00338243 0.00385861 0.999993 0 7.19141)" fill="#A0A0A0"/>
</g>
<rect x="760.328" y="773.902" width="608.358" height="203.56" rx="49" fill="white" stroke="#F79D36" stroke-width="2"/>
<path d="M896.381 864.834C896.381 866.601 895.964 868.268 895.131 869.834C894.298 871.401 892.964 872.684 891.131 873.684C889.298 874.651 886.948 875.134 884.081 875.134H877.781V889.234H872.081V854.484H884.081C886.748 854.484 888.998 854.951 890.831 855.884C892.698 856.784 894.081 858.018 894.981 859.584C895.914 861.151 896.381 862.901 896.381 864.834ZM884.081 870.484C886.248 870.484 887.864 870.001 888.931 869.034C889.998 868.034 890.531 866.634 890.531 864.834C890.531 861.034 888.381 859.134 884.081 859.134H877.781V870.484H884.081ZM898.917 875.334C898.917 872.568 899.484 870.118 900.617 867.984C901.784 865.851 903.351 864.201 905.317 863.034C907.317 861.834 909.517 861.234 911.917 861.234C914.084 861.234 915.967 861.668 917.567 862.534C919.201 863.368 920.501 864.418 921.467 865.684V861.684H927.217V889.234H921.467V885.134C920.501 886.434 919.184 887.518 917.517 888.384C915.851 889.251 913.951 889.684 911.817 889.684C909.451 889.684 907.284 889.084 905.317 887.884C903.351 886.651 901.784 884.951 900.617 882.784C899.484 880.584 898.917 878.101 898.917 875.334ZM921.467 875.434C921.467 873.534 921.067 871.884 920.267 870.484C919.501 869.084 918.484 868.018 917.217 867.284C915.951 866.551 914.584 866.184 913.117 866.184C911.651 866.184 910.284 866.551 909.017 867.284C907.751 867.984 906.717 869.034 905.917 870.434C905.151 871.801 904.767 873.434 904.767 875.334C904.767 877.234 905.151 878.901 905.917 880.334C906.717 881.768 907.751 882.868 909.017 883.634C910.317 884.368 911.684 884.734 913.117 884.734C914.584 884.734 915.951 884.368 917.217 883.634C918.484 882.901 919.501 881.834 920.267 880.434C921.067 879.001 921.467 877.334 921.467 875.434ZM958.504 861.684L941.604 902.184H935.704L941.304 888.784L930.454 861.684H936.804L944.554 882.684L952.604 861.684H958.504ZM995.156 861.234C997.322 861.234 999.256 861.684 1000.96 862.584C1002.69 863.484 1004.04 864.818 1005.01 866.584C1006.01 868.351 1006.51 870.484 1006.51 872.984V889.234H1000.86V873.834C1000.86 871.368 1000.24 869.484 999.006 868.184C997.772 866.851 996.089 866.184 993.956 866.184C991.822 866.184 990.122 866.851 988.856 868.184C987.622 869.484 987.006 871.368 987.006 873.834V889.234H981.356V873.834C981.356 871.368 980.739 869.484 979.506 868.184C978.272 866.851 976.589 866.184 974.456 866.184C972.322 866.184 970.622 866.851 969.356 868.184C968.122 869.484 967.506 871.368 967.506 873.834V889.234H961.806V861.684H967.506V864.834C968.439 863.701 969.622 862.818 971.056 862.184C972.489 861.551 974.022 861.234 975.656 861.234C977.856 861.234 979.822 861.701 981.556 862.634C983.289 863.568 984.622 864.918 985.556 866.684C986.389 865.018 987.689 863.701 989.456 862.734C991.222 861.734 993.122 861.234 995.156 861.234ZM1038.01 874.784C1038.01 875.818 1037.94 876.751 1037.81 877.584H1016.76C1016.93 879.784 1017.74 881.551 1019.21 882.884C1020.68 884.218 1022.48 884.884 1024.61 884.884C1027.68 884.884 1029.84 883.601 1031.11 881.034H1037.26C1036.43 883.568 1034.91 885.651 1032.71 887.284C1030.54 888.884 1027.84 889.684 1024.61 889.684C1021.98 889.684 1019.61 889.101 1017.51 887.934C1015.44 886.734 1013.81 885.068 1012.61 882.934C1011.44 880.768 1010.86 878.268 1010.86 875.434C1010.86 872.601 1011.43 870.118 1012.56 867.984C1013.73 865.818 1015.34 864.151 1017.41 862.984C1019.51 861.818 1021.91 861.234 1024.61 861.234C1027.21 861.234 1029.53 861.801 1031.56 862.934C1033.59 864.068 1035.18 865.668 1036.31 867.734C1037.44 869.768 1038.01 872.118 1038.01 874.784ZM1032.06 872.984C1032.03 870.884 1031.28 869.201 1029.81 867.934C1028.34 866.668 1026.53 866.034 1024.36 866.034C1022.39 866.034 1020.71 866.668 1019.31 867.934C1017.91 869.168 1017.08 870.851 1016.81 872.984H1032.06ZM1056.52 861.234C1058.68 861.234 1060.62 861.684 1062.32 862.584C1064.05 863.484 1065.4 864.818 1066.37 866.584C1067.33 868.351 1067.82 870.484 1067.82 872.984V889.234H1062.17V873.834C1062.17 871.368 1061.55 869.484 1060.32 868.184C1059.08 866.851 1057.4 866.184 1055.27 866.184C1053.13 866.184 1051.43 866.851 1050.17 868.184C1048.93 869.484 1048.32 871.368 1048.32 873.834V889.234H1042.62V861.684H1048.32V864.834C1049.25 863.701 1050.43 862.818 1051.87 862.184C1053.33 861.551 1054.88 861.234 1056.52 861.234ZM1080.74 866.334V881.584C1080.74 882.618 1080.97 883.368 1081.44 883.834C1081.94 884.268 1082.77 884.484 1083.94 884.484H1087.44V889.234H1082.94C1080.37 889.234 1078.41 888.634 1077.04 887.434C1075.67 886.234 1074.99 884.284 1074.99 881.584V866.334H1071.74V861.684H1074.99V854.834H1080.74V861.684H1087.44V866.334H1080.74ZM1117.93 861.234C1120.03 861.234 1121.9 861.684 1123.53 862.584C1125.2 863.484 1126.5 864.818 1127.43 866.584C1128.4 868.351 1128.88 870.484 1128.88 872.984V889.234H1123.23V873.834C1123.23 871.368 1122.61 869.484 1121.38 868.184C1120.15 866.851 1118.46 866.184 1116.33 866.184C1114.2 866.184 1112.5 866.851 1111.23 868.184C1110 869.484 1109.38 871.368 1109.38 873.834V889.234H1103.68V852.234H1109.38V864.884C1110.35 863.718 1111.56 862.818 1113.03 862.184C1114.53 861.551 1116.16 861.234 1117.93 861.234ZM1138.05 858.034C1137.02 858.034 1136.15 857.684 1135.45 856.984C1134.75 856.284 1134.4 855.418 1134.4 854.384C1134.4 853.351 1134.75 852.484 1135.45 851.784C1136.15 851.084 1137.02 850.734 1138.05 850.734C1139.05 850.734 1139.9 851.084 1140.6 851.784C1141.3 852.484 1141.65 853.351 1141.65 854.384C1141.65 855.418 1141.3 856.284 1140.6 856.984C1139.9 857.684 1139.05 858.034 1138.05 858.034ZM1140.85 861.684V889.234H1135.15V861.684H1140.85ZM1157.33 889.684C1155.17 889.684 1153.22 889.301 1151.48 888.534C1149.78 887.734 1148.43 886.668 1147.43 885.334C1146.43 883.968 1145.9 882.451 1145.83 880.784H1151.73C1151.83 881.951 1152.38 882.934 1153.38 883.734C1154.42 884.501 1155.7 884.884 1157.23 884.884C1158.83 884.884 1160.07 884.584 1160.93 883.984C1161.83 883.351 1162.28 882.551 1162.28 881.584C1162.28 880.551 1161.78 879.784 1160.78 879.284C1159.82 878.784 1158.27 878.234 1156.13 877.634C1154.07 877.068 1152.38 876.518 1151.08 875.984C1149.78 875.451 1148.65 874.634 1147.68 873.534C1146.75 872.434 1146.28 870.984 1146.28 869.184C1146.28 867.718 1146.72 866.384 1147.58 865.184C1148.45 863.951 1149.68 862.984 1151.28 862.284C1152.92 861.584 1154.78 861.234 1156.88 861.234C1160.02 861.234 1162.53 862.034 1164.43 863.634C1166.37 865.201 1167.4 867.351 1167.53 870.084H1161.83C1161.73 868.851 1161.23 867.868 1160.33 867.134C1159.43 866.401 1158.22 866.034 1156.68 866.034C1155.18 866.034 1154.03 866.318 1153.23 866.884C1152.43 867.451 1152.03 868.201 1152.03 869.134C1152.03 869.868 1152.3 870.484 1152.83 870.984C1153.37 871.484 1154.02 871.884 1154.78 872.184C1155.55 872.451 1156.68 872.801 1158.18 873.234C1160.18 873.768 1161.82 874.318 1163.08 874.884C1164.38 875.418 1165.5 876.218 1166.43 877.284C1167.37 878.351 1167.85 879.768 1167.88 881.534C1167.88 883.101 1167.45 884.501 1166.58 885.734C1165.72 886.968 1164.48 887.934 1162.88 888.634C1161.32 889.334 1159.47 889.684 1157.33 889.684ZM1179.69 866.334V881.584C1179.69 882.618 1179.93 883.368 1180.39 883.834C1180.89 884.268 1181.73 884.484 1182.89 884.484H1186.39V889.234H1181.89C1179.33 889.234 1177.36 888.634 1175.99 887.434C1174.63 886.234 1173.94 884.284 1173.94 881.584V866.334H1170.69V861.684H1173.94V854.834H1179.69V861.684H1186.39V866.334H1179.69ZM1202.6 889.684C1200 889.684 1197.65 889.101 1195.55 887.934C1193.45 886.734 1191.8 885.068 1190.6 882.934C1189.4 880.768 1188.8 878.268 1188.8 875.434C1188.8 872.634 1189.41 870.151 1190.65 867.984C1191.88 865.818 1193.56 864.151 1195.7 862.984C1197.83 861.818 1200.21 861.234 1202.85 861.234C1205.48 861.234 1207.86 861.818 1210 862.984C1212.13 864.151 1213.81 865.818 1215.05 867.984C1216.28 870.151 1216.9 872.634 1216.9 875.434C1216.9 878.234 1216.26 880.718 1215 882.884C1213.73 885.051 1212 886.734 1209.8 887.934C1207.63 889.101 1205.23 889.684 1202.6 889.684ZM1202.6 884.734C1204.06 884.734 1205.43 884.384 1206.7 883.684C1208 882.984 1209.05 881.934 1209.85 880.534C1210.65 879.134 1211.05 877.434 1211.05 875.434C1211.05 873.434 1210.66 871.751 1209.9 870.384C1209.13 868.984 1208.11 867.934 1206.85 867.234C1205.58 866.534 1204.21 866.184 1202.75 866.184C1201.28 866.184 1199.91 866.534 1198.65 867.234C1197.41 867.934 1196.43 868.984 1195.7 870.384C1194.96 871.751 1194.6 873.434 1194.6 875.434C1194.6 878.401 1195.35 880.701 1196.85 882.334C1198.38 883.934 1200.3 884.734 1202.6 884.734ZM1227.23 865.684C1228.07 864.284 1229.17 863.201 1230.53 862.434C1231.93 861.634 1233.58 861.234 1235.48 861.234V867.134H1234.03C1231.8 867.134 1230.1 867.701 1228.93 868.834C1227.8 869.968 1227.23 871.934 1227.23 874.734V889.234H1221.53V861.684H1227.23V865.684ZM1264.52 861.684L1247.62 902.184H1241.72L1247.32 888.784L1236.47 861.684H1242.82L1250.57 882.684L1258.62 861.684H1264.52Z" fill="#F79D36"/>
<path d="M163.801 865.6C163.801 867.367 163.384 869.033 162.551 870.6C161.718 872.167 160.384 873.45 158.551 874.45C156.718 875.417 154.368 875.9 151.501 875.9H145.201V890H139.501V855.25H151.501C154.168 855.25 156.418 855.717 158.251 856.65C160.118 857.55 161.501 858.783 162.401 860.35C163.334 861.917 163.801 863.667 163.801 865.6ZM151.501 871.25C153.668 871.25 155.284 870.767 156.351 869.8C157.418 868.8 157.951 867.4 157.951 865.6C157.951 861.8 155.801 859.9 151.501 859.9H145.201V871.25H151.501ZM166.337 876.1C166.337 873.333 166.904 870.883 168.037 868.75C169.204 866.617 170.771 864.967 172.737 863.8C174.737 862.6 176.937 862 179.337 862C181.504 862 183.387 862.433 184.987 863.3C186.621 864.133 187.921 865.183 188.887 866.45V862.45H194.637V890H188.887V885.9C187.921 887.2 186.604 888.283 184.937 889.15C183.271 890.017 181.371 890.45 179.237 890.45C176.871 890.45 174.704 889.85 172.737 888.65C170.771 887.417 169.204 885.717 168.037 883.55C166.904 881.35 166.337 878.867 166.337 876.1ZM188.887 876.2C188.887 874.3 188.487 872.65 187.687 871.25C186.921 869.85 185.904 868.783 184.637 868.05C183.371 867.317 182.004 866.95 180.537 866.95C179.071 866.95 177.704 867.317 176.437 868.05C175.171 868.75 174.137 869.8 173.337 871.2C172.571 872.567 172.187 874.2 172.187 876.1C172.187 878 172.571 879.667 173.337 881.1C174.137 882.533 175.171 883.633 176.437 884.4C177.737 885.133 179.104 885.5 180.537 885.5C182.004 885.5 183.371 885.133 184.637 884.4C185.904 883.667 186.921 882.6 187.687 881.2C188.487 879.767 188.887 878.1 188.887 876.2ZM225.924 862.45L209.024 902.95H203.124L208.724 889.55L197.874 862.45H204.224L211.974 883.45L220.024 862.45H225.924ZM262.576 862C264.742 862 266.676 862.45 268.376 863.35C270.109 864.25 271.459 865.583 272.426 867.35C273.426 869.117 273.926 871.25 273.926 873.75V890H268.276V874.6C268.276 872.133 267.659 870.25 266.426 868.95C265.192 867.617 263.509 866.95 261.376 866.95C259.242 866.95 257.542 867.617 256.276 868.95C255.042 870.25 254.426 872.133 254.426 874.6V890H248.776V874.6C248.776 872.133 248.159 870.25 246.926 868.95C245.692 867.617 244.009 866.95 241.876 866.95C239.742 866.95 238.042 867.617 236.776 868.95C235.542 870.25 234.926 872.133 234.926 874.6V890H229.226V862.45H234.926V865.6C235.859 864.467 237.042 863.583 238.476 862.95C239.909 862.317 241.442 862 243.076 862C245.276 862 247.242 862.467 248.976 863.4C250.709 864.333 252.042 865.683 252.976 867.45C253.809 865.783 255.109 864.467 256.876 863.5C258.642 862.5 260.542 862 262.576 862ZM305.429 875.55C305.429 876.583 305.362 877.517 305.229 878.35H284.179C284.345 880.55 285.162 882.317 286.629 883.65C288.095 884.983 289.895 885.65 292.029 885.65C295.095 885.65 297.262 884.367 298.529 881.8H304.679C303.845 884.333 302.329 886.417 300.129 888.05C297.962 889.65 295.262 890.45 292.029 890.45C289.395 890.45 287.029 889.867 284.929 888.7C282.862 887.5 281.229 885.833 280.029 883.7C278.862 881.533 278.279 879.033 278.279 876.2C278.279 873.367 278.845 870.883 279.979 868.75C281.145 866.583 282.762 864.917 284.829 863.75C286.929 862.583 289.329 862 292.029 862C294.629 862 296.945 862.567 298.979 863.7C301.012 864.833 302.595 866.433 303.729 868.5C304.862 870.533 305.429 872.883 305.429 875.55ZM299.479 873.75C299.445 871.65 298.695 869.967 297.229 868.7C295.762 867.433 293.945 866.8 291.779 866.8C289.812 866.8 288.129 867.433 286.729 868.7C285.329 869.933 284.495 871.617 284.229 873.75H299.479ZM323.938 862C326.105 862 328.038 862.45 329.738 863.35C331.471 864.25 332.821 865.583 333.788 867.35C334.755 869.117 335.238 871.25 335.238 873.75V890H329.588V874.6C329.588 872.133 328.971 870.25 327.738 868.95C326.505 867.617 324.821 866.95 322.688 866.95C320.555 866.95 318.855 867.617 317.588 868.95C316.355 870.25 315.738 872.133 315.738 874.6V890H310.038V862.45H315.738V865.6C316.671 864.467 317.855 863.583 319.288 862.95C320.755 862.317 322.305 862 323.938 862ZM348.159 867.1V882.35C348.159 883.383 348.392 884.133 348.859 884.6C349.359 885.033 350.192 885.25 351.359 885.25H354.859V890H350.359C347.792 890 345.826 889.4 344.459 888.2C343.092 887 342.409 885.05 342.409 882.35V867.1H339.159V862.45H342.409V855.6H348.159V862.45H354.859V867.1H348.159ZM376.801 866.45C377.634 865.05 378.734 863.967 380.101 863.2C381.501 862.4 383.151 862 385.051 862V867.9H383.601C381.367 867.9 379.667 868.467 378.501 869.6C377.367 870.733 376.801 872.7 376.801 875.5V890H371.101V862.45H376.801V866.45ZM414.54 875.55C414.54 876.583 414.473 877.517 414.34 878.35H393.29C393.457 880.55 394.273 882.317 395.74 883.65C397.207 884.983 399.007 885.65 401.14 885.65C404.207 885.65 406.373 884.367 407.64 881.8H413.79C412.957 884.333 411.44 886.417 409.24 888.05C407.073 889.65 404.373 890.45 401.14 890.45C398.507 890.45 396.14 889.867 394.04 888.7C391.973 887.5 390.34 885.833 389.14 883.7C387.973 881.533 387.39 879.033 387.39 876.2C387.39 873.367 387.957 870.883 389.09 868.75C390.257 866.583 391.873 864.917 393.94 863.75C396.04 862.583 398.44 862 401.14 862C403.74 862 406.057 862.567 408.09 863.7C410.123 864.833 411.707 866.433 412.84 868.5C413.973 870.533 414.54 872.883 414.54 875.55ZM408.59 873.75C408.557 871.65 407.807 869.967 406.34 868.7C404.873 867.433 403.057 866.8 400.89 866.8C398.923 866.8 397.24 867.433 395.84 868.7C394.44 869.933 393.607 871.617 393.34 873.75H408.59ZM452.499 862C454.666 862 456.599 862.45 458.299 863.35C460.033 864.25 461.383 865.583 462.349 867.35C463.349 869.117 463.849 871.25 463.849 873.75V890H458.199V874.6C458.199 872.133 457.583 870.25 456.349 868.95C455.116 867.617 453.433 866.95 451.299 866.95C449.166 866.95 447.466 867.617 446.199 868.95C444.966 870.25 444.349 872.133 444.349 874.6V890H438.699V874.6C438.699 872.133 438.083 870.25 436.849 868.95C435.616 867.617 433.933 866.95 431.799 866.95C429.666 866.95 427.966 867.617 426.699 868.95C425.466 870.25 424.849 872.133 424.849 874.6V890H419.149V862.45H424.849V865.6C425.783 864.467 426.966 863.583 428.399 862.95C429.833 862.317 431.366 862 432.999 862C435.199 862 437.166 862.467 438.899 863.4C440.633 864.333 441.966 865.683 442.899 867.45C443.733 865.783 445.033 864.467 446.799 863.5C448.566 862.5 450.466 862 452.499 862ZM473.003 858.8C471.969 858.8 471.103 858.45 470.403 857.75C469.703 857.05 469.353 856.183 469.353 855.15C469.353 854.117 469.703 853.25 470.403 852.55C471.103 851.85 471.969 851.5 473.003 851.5C474.003 851.5 474.853 851.85 475.553 852.55C476.253 853.25 476.603 854.117 476.603 855.15C476.603 856.183 476.253 857.05 475.553 857.75C474.853 858.45 474.003 858.8 473.003 858.8ZM475.803 862.45V890H470.103V862.45H475.803ZM496.186 862C498.353 862 500.286 862.45 501.986 863.35C503.72 864.25 505.07 865.583 506.036 867.35C507.003 869.117 507.486 871.25 507.486 873.75V890H501.836V874.6C501.836 872.133 501.22 870.25 499.986 868.95C498.753 867.617 497.07 866.95 494.936 866.95C492.803 866.95 491.103 867.617 489.836 868.95C488.603 870.25 487.986 872.133 487.986 874.6V890H482.286V862.45H487.986V865.6C488.92 864.467 490.103 863.583 491.536 862.95C493.003 862.317 494.553 862 496.186 862ZM511.857 876.1C511.857 873.333 512.424 870.883 513.557 868.75C514.724 866.617 516.29 864.967 518.257 863.8C520.257 862.6 522.474 862 524.907 862C526.707 862 528.474 862.4 530.207 863.2C531.974 863.967 533.374 865 534.407 866.3V853H540.157V890H534.407V885.85C533.474 887.183 532.174 888.283 530.507 889.15C528.874 890.017 526.99 890.45 524.857 890.45C522.457 890.45 520.257 889.85 518.257 888.65C516.29 887.417 514.724 885.717 513.557 883.55C512.424 881.35 511.857 878.867 511.857 876.1ZM534.407 876.2C534.407 874.3 534.007 872.65 533.207 871.25C532.44 869.85 531.424 868.783 530.157 868.05C528.89 867.317 527.524 866.95 526.057 866.95C524.59 866.95 523.224 867.317 521.957 868.05C520.69 868.75 519.657 869.8 518.857 871.2C518.09 872.567 517.707 874.2 517.707 876.1C517.707 878 518.09 879.667 518.857 881.1C519.657 882.533 520.69 883.633 521.957 884.4C523.257 885.133 524.624 885.5 526.057 885.5C527.524 885.5 528.89 885.133 530.157 884.4C531.424 883.667 532.44 882.6 533.207 881.2C534.007 879.767 534.407 878.1 534.407 876.2ZM571.894 875.55C571.894 876.583 571.827 877.517 571.694 878.35H550.644C550.81 880.55 551.627 882.317 553.094 883.65C554.56 884.983 556.36 885.65 558.494 885.65C561.56 885.65 563.727 884.367 564.994 881.8H571.144C570.31 884.333 568.794 886.417 566.594 888.05C564.427 889.65 561.727 890.45 558.494 890.45C555.86 890.45 553.494 889.867 551.394 888.7C549.327 887.5 547.694 885.833 546.494 883.7C545.327 881.533 544.744 879.033 544.744 876.2C544.744 873.367 545.31 870.883 546.444 868.75C547.61 866.583 549.227 864.917 551.294 863.75C553.394 862.583 555.794 862 558.494 862C561.094 862 563.41 862.567 565.444 863.7C567.477 864.833 569.06 866.433 570.194 868.5C571.327 870.533 571.894 872.883 571.894 875.55ZM565.944 873.75C565.91 871.65 565.16 869.967 563.694 868.7C562.227 867.433 560.41 866.8 558.244 866.8C556.277 866.8 554.594 867.433 553.194 868.7C551.794 869.933 550.96 871.617 550.694 873.75H565.944ZM582.203 866.45C583.036 865.05 584.136 863.967 585.503 863.2C586.903 862.4 588.553 862 590.453 862V867.9H589.003C586.77 867.9 585.07 868.467 583.903 869.6C582.77 870.733 582.203 872.7 582.203 875.5V890H576.503V862.45H582.203V866.45Z" fill="#D9D9D9"/>
<path d="M1587.83 866.6C1587.83 868.367 1587.41 870.033 1586.58 871.6C1585.74 873.167 1584.41 874.45 1582.58 875.45C1580.74 876.417 1578.39 876.9 1575.53 876.9H1569.23V891H1563.53V856.25H1575.53C1578.19 856.25 1580.44 856.717 1582.28 857.65C1584.14 858.55 1585.53 859.783 1586.43 861.35C1587.36 862.917 1587.83 864.667 1587.83 866.6ZM1575.53 872.25C1577.69 872.25 1579.31 871.767 1580.38 870.8C1581.44 869.8 1581.98 868.4 1581.98 866.6C1581.98 862.8 1579.83 860.9 1575.53 860.9H1569.23V872.25H1575.53ZM1590.36 877.1C1590.36 874.333 1590.93 871.883 1592.06 869.75C1593.23 867.617 1594.8 865.967 1596.76 864.8C1598.76 863.6 1600.96 863 1603.36 863C1605.53 863 1607.41 863.433 1609.01 864.3C1610.65 865.133 1611.95 866.183 1612.91 867.45V863.45H1618.66V891H1612.91V886.9C1611.95 888.2 1610.63 889.283 1608.96 890.15C1607.3 891.017 1605.4 891.45 1603.26 891.45C1600.9 891.45 1598.73 890.85 1596.76 889.65C1594.8 888.417 1593.23 886.717 1592.06 884.55C1590.93 882.35 1590.36 879.867 1590.36 877.1ZM1612.91 877.2C1612.91 875.3 1612.51 873.65 1611.71 872.25C1610.95 870.85 1609.93 869.783 1608.66 869.05C1607.4 868.317 1606.03 867.95 1604.56 867.95C1603.1 867.95 1601.73 868.317 1600.46 869.05C1599.2 869.75 1598.16 870.8 1597.36 872.2C1596.6 873.567 1596.21 875.2 1596.21 877.1C1596.21 879 1596.6 880.667 1597.36 882.1C1598.16 883.533 1599.2 884.633 1600.46 885.4C1601.76 886.133 1603.13 886.5 1604.56 886.5C1606.03 886.5 1607.4 886.133 1608.66 885.4C1609.93 884.667 1610.95 883.6 1611.71 882.2C1612.51 880.767 1612.91 879.1 1612.91 877.2ZM1649.95 863.45L1633.05 903.95H1627.15L1632.75 890.55L1621.9 863.45H1628.25L1636 884.45L1644.05 863.45H1649.95ZM1686.6 863C1688.77 863 1690.7 863.45 1692.4 864.35C1694.14 865.25 1695.49 866.583 1696.45 868.35C1697.45 870.117 1697.95 872.25 1697.95 874.75V891H1692.3V875.6C1692.3 873.133 1691.69 871.25 1690.45 869.95C1689.22 868.617 1687.54 867.95 1685.4 867.95C1683.27 867.95 1681.57 868.617 1680.3 869.95C1679.07 871.25 1678.45 873.133 1678.45 875.6V891H1672.8V875.6C1672.8 873.133 1672.19 871.25 1670.95 869.95C1669.72 868.617 1668.04 867.95 1665.9 867.95C1663.77 867.95 1662.07 868.617 1660.8 869.95C1659.57 871.25 1658.95 873.133 1658.95 875.6V891H1653.25V863.45H1658.95V866.6C1659.89 865.467 1661.07 864.583 1662.5 863.95C1663.94 863.317 1665.47 863 1667.1 863C1669.3 863 1671.27 863.467 1673 864.4C1674.74 865.333 1676.07 866.683 1677 868.45C1677.84 866.783 1679.14 865.467 1680.9 864.5C1682.67 863.5 1684.57 863 1686.6 863ZM1729.46 876.55C1729.46 877.583 1729.39 878.517 1729.26 879.35H1708.21C1708.37 881.55 1709.19 883.317 1710.66 884.65C1712.12 885.983 1713.92 886.65 1716.06 886.65C1719.12 886.65 1721.29 885.367 1722.56 882.8H1728.71C1727.87 885.333 1726.36 887.417 1724.16 889.05C1721.99 890.65 1719.29 891.45 1716.06 891.45C1713.42 891.45 1711.06 890.867 1708.96 889.7C1706.89 888.5 1705.26 886.833 1704.06 884.7C1702.89 882.533 1702.31 880.033 1702.31 877.2C1702.31 874.367 1702.87 871.883 1704.01 869.75C1705.17 867.583 1706.79 865.917 1708.86 864.75C1710.96 863.583 1713.36 863 1716.06 863C1718.66 863 1720.97 863.567 1723.01 864.7C1725.04 865.833 1726.62 867.433 1727.76 869.5C1728.89 871.533 1729.46 873.883 1729.46 876.55ZM1723.51 874.75C1723.47 872.65 1722.72 870.967 1721.26 869.7C1719.79 868.433 1717.97 867.8 1715.81 867.8C1713.84 867.8 1712.16 868.433 1710.76 869.7C1709.36 870.933 1708.52 872.617 1708.26 874.75H1723.51ZM1747.96 863C1750.13 863 1752.06 863.45 1753.76 864.35C1755.5 865.25 1756.85 866.583 1757.81 868.35C1758.78 870.117 1759.26 872.25 1759.26 874.75V891H1753.61V875.6C1753.61 873.133 1753 871.25 1751.76 869.95C1750.53 868.617 1748.85 867.95 1746.71 867.95C1744.58 867.95 1742.88 868.617 1741.61 869.95C1740.38 871.25 1739.76 873.133 1739.76 875.6V891H1734.06V863.45H1739.76V866.6C1740.7 865.467 1741.88 864.583 1743.31 863.95C1744.78 863.317 1746.33 863 1747.96 863ZM1772.19 868.1V883.35C1772.19 884.383 1772.42 885.133 1772.89 885.6C1773.39 886.033 1774.22 886.25 1775.39 886.25H1778.89V891H1774.39C1771.82 891 1769.85 890.4 1768.49 889.2C1767.12 888 1766.44 886.05 1766.44 883.35V868.1H1763.19V863.45H1766.44V856.6H1772.19V863.45H1778.89V868.1H1772.19ZM1807.08 891.45C1804.48 891.45 1802.13 890.867 1800.03 889.7C1797.93 888.5 1796.28 886.833 1795.08 884.7C1793.88 882.533 1793.28 880.033 1793.28 877.2C1793.28 874.4 1793.89 871.917 1795.13 869.75C1796.36 867.583 1798.04 865.917 1800.18 864.75C1802.31 863.583 1804.69 863 1807.33 863C1809.96 863 1812.34 863.583 1814.48 864.75C1816.61 865.917 1818.29 867.583 1819.53 869.75C1820.76 871.917 1821.38 874.4 1821.38 877.2C1821.38 880 1820.74 882.483 1819.48 884.65C1818.21 886.817 1816.48 888.5 1814.28 889.7C1812.11 890.867 1809.71 891.45 1807.08 891.45ZM1807.08 886.5C1808.54 886.5 1809.91 886.15 1811.18 885.45C1812.48 884.75 1813.53 883.7 1814.33 882.3C1815.13 880.9 1815.53 879.2 1815.53 877.2C1815.53 875.2 1815.14 873.517 1814.38 872.15C1813.61 870.75 1812.59 869.7 1811.33 869C1810.06 868.3 1808.69 867.95 1807.23 867.95C1805.76 867.95 1804.39 868.3 1803.13 869C1801.89 869.7 1800.91 870.75 1800.18 872.15C1799.44 873.517 1799.08 875.2 1799.08 877.2C1799.08 880.167 1799.83 882.467 1801.33 884.1C1802.86 885.7 1804.78 886.5 1807.08 886.5ZM1831.71 867.5C1832.68 866.233 1834 865.167 1835.66 864.3C1837.33 863.433 1839.21 863 1841.31 863C1843.71 863 1845.9 863.6 1847.86 864.8C1849.86 865.967 1851.43 867.617 1852.56 869.75C1853.7 871.883 1854.26 874.333 1854.26 877.1C1854.26 879.867 1853.7 882.35 1852.56 884.55C1851.43 886.717 1849.86 888.417 1847.86 889.65C1845.9 890.85 1843.71 891.45 1841.31 891.45C1839.21 891.45 1837.35 891.033 1835.71 890.2C1834.08 889.333 1832.75 888.267 1831.71 887V904.1H1826.01V863.45H1831.71V867.5ZM1848.46 877.1C1848.46 875.2 1848.06 873.567 1847.26 872.2C1846.5 870.8 1845.46 869.75 1844.16 869.05C1842.9 868.317 1841.53 867.95 1840.06 867.95C1838.63 867.95 1837.26 868.317 1835.96 869.05C1834.7 869.783 1833.66 870.85 1832.86 872.25C1832.1 873.65 1831.71 875.3 1831.71 877.2C1831.71 879.1 1832.1 880.767 1832.86 882.2C1833.66 883.6 1834.7 884.667 1835.96 885.4C1837.26 886.133 1838.63 886.5 1840.06 886.5C1841.53 886.5 1842.9 886.133 1844.16 885.4C1845.46 884.633 1846.5 883.533 1847.26 882.1C1848.06 880.667 1848.46 879 1848.46 877.1ZM1865.55 868.1V883.35C1865.55 884.383 1865.78 885.133 1866.25 885.6C1866.75 886.033 1867.58 886.25 1868.75 886.25H1872.25V891H1867.75C1865.18 891 1863.22 890.4 1861.85 889.2C1860.48 888 1859.8 886.05 1859.8 883.35V868.1H1856.55V863.45H1859.8V856.6H1865.55V863.45H1872.25V868.1H1865.55ZM1879.4 859.8C1878.37 859.8 1877.5 859.45 1876.8 858.75C1876.1 858.05 1875.75 857.183 1875.75 856.15C1875.75 855.117 1876.1 854.25 1876.8 853.55C1877.5 852.85 1878.37 852.5 1879.4 852.5C1880.4 852.5 1881.25 852.85 1881.95 853.55C1882.65 854.25 1883 855.117 1883 856.15C1883 857.183 1882.65 858.05 1881.95 858.75C1881.25 859.45 1880.4 859.8 1879.4 859.8ZM1882.2 863.45V891H1876.5V863.45H1882.2ZM1900.64 891.45C1898.04 891.45 1895.69 890.867 1893.59 889.7C1891.49 888.5 1889.84 886.833 1888.64 884.7C1887.44 882.533 1886.84 880.033 1886.84 877.2C1886.84 874.4 1887.45 871.917 1888.69 869.75C1889.92 867.583 1891.6 865.917 1893.74 864.75C1895.87 863.583 1898.25 863 1900.89 863C1903.52 863 1905.9 863.583 1908.04 864.75C1910.17 865.917 1911.85 867.583 1913.09 869.75C1914.32 871.917 1914.94 874.4 1914.94 877.2C1914.94 880 1914.3 882.483 1913.04 884.65C1911.77 886.817 1910.04 888.5 1907.84 889.7C1905.67 890.867 1903.27 891.45 1900.64 891.45ZM1900.64 886.5C1902.1 886.5 1903.47 886.15 1904.74 885.45C1906.04 884.75 1907.09 883.7 1907.89 882.3C1908.69 880.9 1909.09 879.2 1909.09 877.2C1909.09 875.2 1908.7 873.517 1907.94 872.15C1907.17 870.75 1906.15 869.7 1904.89 869C1903.62 868.3 1902.25 867.95 1900.79 867.95C1899.32 867.95 1897.95 868.3 1896.69 869C1895.45 869.7 1894.47 870.75 1893.74 872.15C1893 873.517 1892.64 875.2 1892.64 877.2C1892.64 880.167 1893.39 882.467 1894.89 884.1C1896.42 885.7 1898.34 886.5 1900.64 886.5ZM1933.47 863C1935.64 863 1937.57 863.45 1939.27 864.35C1941 865.25 1942.35 866.583 1943.32 868.35C1944.29 870.117 1944.77 872.25 1944.77 874.75V891H1939.12V875.6C1939.12 873.133 1938.5 871.25 1937.27 869.95C1936.04 868.617 1934.35 867.95 1932.22 867.95C1930.09 867.95 1928.39 868.617 1927.12 869.95C1925.89 871.25 1925.27 873.133 1925.27 875.6V891H1919.57V863.45H1925.27V866.6C1926.2 865.467 1927.39 864.583 1928.82 863.95C1930.29 863.317 1931.84 863 1933.47 863ZM1961.04 891.45C1958.87 891.45 1956.92 891.067 1955.19 890.3C1953.49 889.5 1952.14 888.433 1951.14 887.1C1950.14 885.733 1949.61 884.217 1949.54 882.55H1955.44C1955.54 883.717 1956.09 884.7 1957.09 885.5C1958.12 886.267 1959.41 886.65 1960.94 886.65C1962.54 886.65 1963.77 886.35 1964.64 885.75C1965.54 885.117 1965.99 884.317 1965.99 883.35C1965.99 882.317 1965.49 881.55 1964.49 881.05C1963.52 880.55 1961.97 880 1959.84 879.4C1957.77 878.833 1956.09 878.283 1954.79 877.75C1953.49 877.217 1952.36 876.4 1951.39 875.3C1950.46 874.2 1949.99 872.75 1949.99 870.95C1949.99 869.483 1950.42 868.15 1951.29 866.95C1952.16 865.717 1953.39 864.75 1954.99 864.05C1956.62 863.35 1958.49 863 1960.59 863C1963.72 863 1966.24 863.8 1968.14 865.4C1970.07 866.967 1971.11 869.117 1971.24 871.85H1965.54C1965.44 870.617 1964.94 869.633 1964.04 868.9C1963.14 868.167 1961.92 867.8 1960.39 867.8C1958.89 867.8 1957.74 868.083 1956.94 868.65C1956.14 869.217 1955.74 869.967 1955.74 870.9C1955.74 871.633 1956.01 872.25 1956.54 872.75C1957.07 873.25 1957.72 873.65 1958.49 873.95C1959.26 874.217 1960.39 874.567 1961.89 875C1963.89 875.533 1965.52 876.083 1966.79 876.65C1968.09 877.183 1969.21 877.983 1970.14 879.05C1971.07 880.117 1971.56 881.533 1971.59 883.3C1971.59 884.867 1971.16 886.267 1970.29 887.5C1969.42 888.733 1968.19 889.7 1966.59 890.4C1965.02 891.1 1963.17 891.45 1961.04 891.45Z" fill="#D9D9D9"/>
<rect x="70.9297" y="773.902" width="608.358" height="203.56" rx="49" stroke="#D9D9D9" stroke-width="2"/>
<g filter="url(#filter1_i_424_5766)">
<rect x="66" y="62" width="1997" height="612" rx="100" fill="#292F36"/>
</g>
<rect x="737.375" y="464.562" width="711.353" height="168.559" rx="24" fill="#F79D36"/>
<path d="M994.543 540.496C994.543 542.885 993.967 545.125 992.815 547.216C991.705 549.306 989.935 550.992 987.503 552.272C985.113 553.552 982.084 554.192 978.415 554.192H970.927V571.344H961.967V526.672H978.415C981.871 526.672 984.815 527.269 987.247 528.464C989.679 529.658 991.492 531.301 992.687 533.392C993.924 535.482 994.543 537.85 994.543 540.496ZM978.031 546.96C980.505 546.96 982.34 546.405 983.535 545.296C984.729 544.144 985.327 542.544 985.327 540.496C985.327 536.144 982.895 533.968 978.031 533.968H970.927V546.96H978.031ZM997.32 553.488C997.32 549.904 998.024 546.725 999.432 543.952C1000.88 541.178 1002.82 539.045 1005.26 537.552C1007.73 536.058 1010.48 535.312 1013.51 535.312C1016.16 535.312 1018.46 535.845 1020.42 536.912C1022.43 537.978 1024.03 539.322 1025.22 540.944V535.888H1034.25V571.344H1025.22V566.16C1024.07 567.824 1022.47 569.21 1020.42 570.32C1018.42 571.386 1016.09 571.92 1013.45 571.92C1010.46 571.92 1007.73 571.152 1005.26 569.616C1002.82 568.08 1000.88 565.925 999.432 563.152C998.024 560.336 997.32 557.114 997.32 553.488ZM1025.22 553.616C1025.22 551.44 1024.8 549.584 1023.94 548.048C1023.09 546.469 1021.94 545.274 1020.49 544.464C1019.04 543.61 1017.48 543.184 1015.82 543.184C1014.15 543.184 1012.62 543.589 1011.21 544.4C1009.8 545.21 1008.65 546.405 1007.75 547.984C1006.9 549.52 1006.47 551.354 1006.47 553.488C1006.47 555.621 1006.9 557.498 1007.75 559.12C1008.65 560.698 1009.8 561.914 1011.21 562.768C1012.66 563.621 1014.19 564.048 1015.82 564.048C1017.48 564.048 1019.04 563.642 1020.49 562.832C1021.94 561.978 1023.09 560.784 1023.94 559.248C1024.8 557.669 1025.22 555.792 1025.22 553.616ZM1075.64 535.888L1053.69 588.112H1044.15L1051.83 570.448L1037.62 535.888H1047.67L1056.82 560.656L1066.1 535.888H1075.64ZM1131.37 571.344H1122.41L1102.12 540.688V571.344H1093.16V526.608H1102.12L1122.41 557.328V526.608H1131.37V571.344ZM1154.69 571.92C1151.27 571.92 1148.2 571.173 1145.47 569.68C1142.74 568.144 1140.58 565.989 1139.01 563.216C1137.47 560.442 1136.7 557.242 1136.7 553.616C1136.7 549.989 1137.49 546.789 1139.07 544.016C1140.69 541.242 1142.89 539.109 1145.66 537.616C1148.44 536.08 1151.53 535.312 1154.94 535.312C1158.36 535.312 1161.45 536.08 1164.22 537.616C1167 539.109 1169.17 541.242 1170.75 544.016C1172.37 546.789 1173.18 549.989 1173.18 553.616C1173.18 557.242 1172.35 560.442 1170.69 563.216C1169.06 565.989 1166.85 568.144 1164.03 569.68C1161.26 571.173 1158.14 571.92 1154.69 571.92ZM1154.69 564.112C1156.31 564.112 1157.82 563.728 1159.23 562.96C1160.68 562.149 1161.83 560.954 1162.69 559.376C1163.54 557.797 1163.97 555.877 1163.97 553.616C1163.97 550.245 1163.07 547.664 1161.28 545.872C1159.53 544.037 1157.37 543.12 1154.81 543.12C1152.25 543.12 1150.1 544.037 1148.35 545.872C1146.64 547.664 1145.79 550.245 1145.79 553.616C1145.79 556.986 1146.62 559.589 1148.29 561.424C1149.99 563.216 1152.13 564.112 1154.69 564.112ZM1227.63 535.888L1217.26 571.344H1207.59L1201.13 546.576L1194.67 571.344H1184.94L1174.51 535.888H1183.59L1189.87 562.896L1196.65 535.888H1206.12L1212.78 562.832L1219.05 535.888H1227.63Z" fill="white"/>
<path d="M958.469 312.232L953.547 323.119H887.077L891.104 312.232H958.469ZM948.973 333.062L943.554 344.199H887.077L891.104 333.062H948.973ZM971.395 285.037L963.44 302.04C962.115 301.112 960.507 300.101 958.618 299.007C956.762 297.88 954.624 296.936 952.205 296.173C949.818 295.378 947.167 294.98 944.25 294.98C939.643 294.98 935.633 296.14 932.219 298.46C928.805 300.78 926.153 304.393 924.264 309.298C922.408 314.204 921.48 320.501 921.48 328.19C921.48 335.946 922.408 342.26 924.264 347.132C926.153 351.971 928.805 355.534 932.219 357.821C935.633 360.075 939.643 361.202 944.25 361.202C947.167 361.202 949.818 360.821 952.205 360.058C954.591 359.296 956.679 358.384 958.469 357.324C960.292 356.263 961.816 355.286 963.043 354.391L971.097 371.393C967.484 374.376 963.391 376.63 958.817 378.155C954.243 379.646 949.387 380.392 944.25 380.392C935.566 380.392 927.877 378.337 921.182 374.227C914.52 370.084 909.3 364.135 905.521 356.379C901.743 348.59 899.854 339.194 899.854 328.19C899.854 317.22 901.743 307.823 905.521 300.001C909.3 292.179 914.52 286.197 921.182 282.054C927.877 277.878 935.566 275.79 944.25 275.79C949.586 275.79 954.525 276.585 959.065 278.176C963.606 279.767 967.716 282.054 971.395 285.037ZM1022.55 380.392C1014.89 380.392 1008.08 379.149 1002.12 376.663C996.183 374.144 991.526 370.714 988.146 366.372C984.765 362.03 983.075 357.108 983.075 351.607C983.075 347.364 984.036 343.47 985.958 339.923C987.914 336.344 990.565 333.377 993.913 331.024C997.26 328.638 1001.01 327.113 1005.15 326.45V325.754C999.713 324.661 995.305 322.026 991.924 317.849C988.543 313.64 986.853 308.751 986.853 303.183C986.853 297.913 988.394 293.223 991.477 289.114C994.559 284.971 998.785 281.723 1004.15 279.369C1009.56 276.983 1015.69 275.79 1022.55 275.79C1029.41 275.79 1035.52 276.983 1040.89 279.369C1046.3 281.756 1050.54 285.02 1053.62 289.163C1056.7 293.273 1058.26 297.946 1058.29 303.183C1058.26 308.785 1056.54 313.673 1053.12 317.849C1049.71 322.026 1045.34 324.661 1040 325.754V326.45C1044.08 327.113 1047.77 328.638 1051.09 331.024C1054.43 333.377 1057.09 336.344 1059.04 339.923C1061.03 343.47 1062.04 347.364 1062.07 351.607C1062.04 357.108 1060.33 362.03 1056.95 366.372C1053.57 370.714 1048.9 374.144 1042.93 376.663C1037 379.149 1030.21 380.392 1022.55 380.392ZM1022.55 364.582C1025.96 364.582 1028.95 363.969 1031.5 362.743C1034.05 361.483 1036.04 359.76 1037.46 357.572C1038.92 355.352 1039.65 352.8 1039.65 349.916C1039.65 346.966 1038.91 344.365 1037.41 342.111C1035.92 339.824 1033.9 338.034 1031.35 336.741C1028.8 335.416 1025.86 334.753 1022.55 334.753C1019.27 334.753 1016.33 335.416 1013.75 336.741C1011.16 338.034 1009.13 339.824 1007.63 342.111C1006.18 344.365 1005.45 346.966 1005.45 349.916C1005.45 352.8 1006.16 355.352 1007.58 357.572C1009.01 359.76 1011.01 361.483 1013.6 362.743C1016.19 363.969 1019.17 364.582 1022.55 364.582ZM1022.55 319.092C1025.4 319.092 1027.93 318.512 1030.16 317.352C1032.38 316.192 1034.12 314.585 1035.38 312.53C1036.64 310.475 1037.26 308.105 1037.26 305.42C1037.26 302.769 1036.64 300.449 1035.38 298.46C1034.12 296.438 1032.39 294.864 1030.21 293.737C1028.02 292.577 1025.47 291.997 1022.55 291.997C1019.67 291.997 1017.11 292.577 1014.89 293.737C1012.67 294.864 1010.93 296.438 1009.67 298.46C1008.45 300.449 1007.83 302.769 1007.83 305.42C1007.83 308.105 1008.46 310.475 1009.72 312.53C1010.98 314.585 1012.72 316.192 1014.94 317.352C1017.16 318.512 1019.7 319.092 1022.55 319.092ZM1111.51 380.392C1104.49 380.392 1098.22 379.099 1092.72 376.514C1087.25 373.929 1082.91 370.366 1079.69 365.825C1076.48 361.285 1074.81 356.081 1074.67 350.214H1095.55C1095.79 354.159 1097.44 357.357 1100.52 359.81C1103.61 362.262 1107.27 363.489 1111.51 363.489C1114.89 363.489 1117.88 362.743 1120.46 361.251C1123.08 359.727 1125.12 357.622 1126.58 354.938C1128.07 352.22 1128.81 349.104 1128.81 345.591C1128.81 342.011 1128.05 338.863 1126.53 336.145C1125.03 333.427 1122.96 331.306 1120.31 329.781C1117.66 328.257 1114.63 327.478 1111.21 327.445C1108.23 327.445 1105.33 328.058 1102.51 329.284C1099.73 330.51 1097.56 332.184 1096 334.305L1076.86 330.875L1081.68 277.182H1143.93V294.781H1099.43L1096.8 320.286H1097.39C1099.18 317.767 1101.88 315.679 1105.5 314.021C1109.11 312.364 1113.15 311.536 1117.63 311.536C1123.76 311.536 1129.23 312.977 1134.03 315.861C1138.84 318.744 1142.63 322.705 1145.42 327.743C1148.2 332.748 1149.58 338.515 1149.54 345.044C1149.58 351.905 1147.99 358.003 1144.77 363.339C1141.59 368.643 1137.13 372.819 1131.4 375.868C1125.7 378.884 1119.07 380.392 1111.51 380.392ZM1201.68 381.237C1193.13 381.204 1185.77 379.099 1179.61 374.923C1173.48 370.747 1168.75 364.698 1165.44 356.777C1162.16 348.856 1160.53 339.327 1160.57 328.19C1160.57 317.087 1162.21 307.625 1165.49 299.803C1168.8 291.981 1173.53 286.031 1179.66 281.955C1185.82 277.845 1193.16 275.79 1201.68 275.79C1210.2 275.79 1217.52 277.845 1223.66 281.955C1229.82 286.064 1234.56 292.03 1237.87 299.852C1241.19 307.641 1242.83 317.087 1242.8 328.19C1242.8 339.36 1241.14 348.905 1237.82 356.827C1234.54 364.748 1229.84 370.797 1223.71 374.973C1217.57 379.149 1210.23 381.237 1201.68 381.237ZM1201.68 363.389C1207.51 363.389 1212.17 360.456 1215.65 354.589C1219.13 348.723 1220.85 339.923 1220.82 328.19C1220.82 320.468 1220.03 314.038 1218.44 308.901C1216.88 303.763 1214.66 299.902 1211.77 297.317C1208.92 294.732 1205.56 293.439 1201.68 293.439C1195.88 293.439 1191.24 296.339 1187.76 302.139C1184.28 307.939 1182.52 316.623 1182.49 328.19C1182.49 336.012 1183.27 342.542 1184.83 347.778C1186.42 352.982 1188.66 356.893 1191.54 359.511C1194.42 362.097 1197.8 363.389 1201.68 363.389Z" fill="white"/>
<path d="M762.597 148H754.67C754.202 145.72 753.381 143.717 752.21 141.991C751.059 140.266 749.653 138.817 747.991 137.645C746.35 136.452 744.528 135.557 742.526 134.96C740.523 134.364 738.435 134.065 736.261 134.065C732.298 134.065 728.708 135.067 725.491 137.07C722.295 139.072 719.749 142.023 717.852 145.923C715.977 149.822 715.04 154.605 715.04 160.273C715.04 165.94 715.977 170.724 717.852 174.623C719.749 178.522 722.295 181.473 725.491 183.476C728.708 185.479 732.298 186.48 736.261 186.48C738.435 186.48 740.523 186.182 742.526 185.585C744.528 184.989 746.35 184.104 747.991 182.933C749.653 181.739 751.059 180.28 752.21 178.554C753.381 176.807 754.202 174.804 754.67 172.545H762.597C762 175.891 760.913 178.884 759.337 181.526C757.76 184.168 755.8 186.416 753.456 188.27C751.112 190.102 748.481 191.498 745.562 192.457C742.664 193.415 739.564 193.895 736.261 193.895C730.679 193.895 725.714 192.531 721.368 189.804C717.021 187.077 713.602 183.199 711.109 178.17C708.616 173.142 707.369 167.176 707.369 160.273C707.369 153.369 708.616 147.403 711.109 142.375C713.602 137.347 717.021 133.469 721.368 130.741C725.714 128.014 730.679 126.651 736.261 126.651C739.564 126.651 742.664 127.13 745.562 128.089C748.481 129.048 751.112 130.454 753.456 132.308C755.8 134.14 757.76 136.377 759.337 139.019C760.913 141.64 762 144.634 762.597 148ZM803.519 172.929V143.909H811.062V193H803.519V184.69H803.008C801.857 187.183 800.068 189.303 797.639 191.05C795.21 192.776 792.142 193.639 788.434 193.639C785.366 193.639 782.639 192.968 780.252 191.626C777.866 190.262 775.991 188.217 774.627 185.489C773.264 182.741 772.582 179.278 772.582 175.102V143.909H780.125V174.591C780.125 178.17 781.126 181.026 783.129 183.156C785.153 185.287 787.731 186.352 790.863 186.352C792.738 186.352 794.645 185.873 796.584 184.914C798.544 183.955 800.185 182.485 801.506 180.504C802.848 178.522 803.519 175.997 803.519 172.929ZM823.077 193V143.909H830.364V151.324H830.875C831.77 148.895 833.389 146.924 835.733 145.411C838.077 143.898 840.719 143.142 843.659 143.142C844.213 143.142 844.906 143.153 845.737 143.174C846.568 143.195 847.196 143.227 847.622 143.27V150.94C847.367 150.876 846.781 150.781 845.864 150.653C844.97 150.504 844.021 150.429 843.02 150.429C840.634 150.429 838.503 150.93 836.628 151.931C834.774 152.911 833.304 154.275 832.217 156.022C831.152 157.748 830.619 159.719 830.619 161.935V193H823.077ZM854.763 193V143.909H862.05V151.324H862.561C863.456 148.895 865.076 146.924 867.419 145.411C869.763 143.898 872.405 143.142 875.346 143.142C875.9 143.142 876.592 143.153 877.423 143.174C878.254 143.195 878.883 143.227 879.309 143.27V150.94C879.053 150.876 878.467 150.781 877.551 150.653C876.656 150.504 875.708 150.429 874.706 150.429C872.32 150.429 870.189 150.93 868.314 151.931C866.461 152.911 864.99 154.275 863.904 156.022C862.838 157.748 862.306 159.719 862.306 161.935V193H854.763ZM905.538 194.023C900.808 194.023 896.727 192.979 893.297 190.891C889.888 188.781 887.257 185.841 885.403 182.07C883.57 178.277 882.654 173.866 882.654 168.838C882.654 163.81 883.57 159.378 885.403 155.543C887.257 151.686 889.835 148.682 893.137 146.53C896.461 144.357 900.339 143.27 904.771 143.27C907.328 143.27 909.852 143.696 912.345 144.548C914.838 145.401 917.107 146.786 919.153 148.703C921.198 150.599 922.828 153.114 924.043 156.246C925.257 159.378 925.864 163.234 925.864 167.815V171.011H888.024V164.491H918.194C918.194 161.722 917.64 159.25 916.532 157.077C915.445 154.903 913.89 153.188 911.866 151.931C909.863 150.674 907.498 150.045 904.771 150.045C901.766 150.045 899.167 150.791 896.972 152.283C894.799 153.753 893.127 155.67 891.955 158.036C890.783 160.401 890.197 162.936 890.197 165.642V169.989C890.197 173.696 890.836 176.839 892.114 179.417C893.414 181.974 895.215 183.923 897.516 185.266C899.817 186.587 902.491 187.247 905.538 187.247C907.519 187.247 909.309 186.97 910.907 186.416C912.526 185.841 913.922 184.989 915.094 183.859C916.266 182.709 917.171 181.281 917.81 179.577L925.097 181.622C924.33 184.094 923.041 186.267 921.23 188.142C919.419 189.996 917.182 191.445 914.519 192.489C911.855 193.511 908.862 194.023 905.538 194.023ZM943.081 163.469V193H935.538V143.909H942.825V151.58H943.464C944.615 149.087 946.362 147.084 948.706 145.571C951.05 144.037 954.075 143.27 957.782 143.27C961.106 143.27 964.015 143.952 966.508 145.315C969.001 146.658 970.939 148.703 972.324 151.452C973.709 154.179 974.402 157.631 974.402 161.807V193H966.859V162.318C966.859 158.462 965.858 155.457 963.855 153.305C961.852 151.132 959.104 150.045 955.609 150.045C953.202 150.045 951.05 150.567 949.153 151.612C947.278 152.656 945.797 154.179 944.711 156.182C943.624 158.185 943.081 160.614 943.081 163.469ZM1007.73 143.909V150.301H982.294V143.909H1007.73ZM989.709 132.148H997.251V178.938C997.251 181.068 997.56 182.666 998.178 183.732C998.817 184.776 999.627 185.479 1000.61 185.841C1001.61 186.182 1002.66 186.352 1003.77 186.352C1004.6 186.352 1005.28 186.31 1005.82 186.224C1006.35 186.118 1006.78 186.033 1007.09 185.969L1008.63 192.744C1008.12 192.936 1007.4 193.128 1006.49 193.32C1005.57 193.533 1004.41 193.639 1003 193.639C1000.87 193.639 998.785 193.181 996.74 192.265C994.716 191.349 993.032 189.953 991.69 188.078C990.369 186.203 989.709 183.838 989.709 180.983V132.148ZM1040.79 193V143.909H1048.08V151.324H1048.59C1049.49 148.895 1051.1 146.924 1053.45 145.411C1055.79 143.898 1058.43 143.142 1061.37 143.142C1061.93 143.142 1062.62 143.153 1063.45 143.174C1064.28 143.195 1064.91 143.227 1065.34 143.27V150.94C1065.08 150.876 1064.5 150.781 1063.58 150.653C1062.69 150.504 1061.74 150.429 1060.74 150.429C1058.35 150.429 1056.22 150.93 1054.34 151.931C1052.49 152.911 1051.02 154.275 1049.93 156.022C1048.87 157.748 1048.34 159.719 1048.34 161.935V193H1040.79ZM1091.57 194.023C1086.84 194.023 1082.76 192.979 1079.33 190.891C1075.92 188.781 1073.29 185.841 1071.43 182.07C1069.6 178.277 1068.68 173.866 1068.68 168.838C1068.68 163.81 1069.6 159.378 1071.43 155.543C1073.29 151.686 1075.86 148.682 1079.17 146.53C1082.49 144.357 1086.37 143.27 1090.8 143.27C1093.36 143.27 1095.88 143.696 1098.37 144.548C1100.87 145.401 1103.14 146.786 1105.18 148.703C1107.23 150.599 1108.86 153.114 1110.07 156.246C1111.29 159.378 1111.89 163.234 1111.89 167.815V171.011H1074.05V164.491H1104.22C1104.22 161.722 1103.67 159.25 1102.56 157.077C1101.47 154.903 1099.92 153.188 1097.9 151.931C1095.89 150.674 1093.53 150.045 1090.8 150.045C1087.8 150.045 1085.2 150.791 1083 152.283C1080.83 153.753 1079.16 155.67 1077.98 158.036C1076.81 160.401 1076.23 162.936 1076.23 165.642V169.989C1076.23 173.696 1076.87 176.839 1078.14 179.417C1079.44 181.974 1081.24 183.923 1083.55 185.266C1085.85 186.587 1088.52 187.247 1091.57 187.247C1093.55 187.247 1095.34 186.97 1096.94 186.416C1098.56 185.841 1099.95 184.989 1101.12 183.859C1102.3 182.709 1103.2 181.281 1103.84 179.577L1111.13 181.622C1110.36 184.094 1109.07 186.267 1107.26 188.142C1105.45 189.996 1103.21 191.445 1100.55 192.489C1097.88 193.511 1094.89 194.023 1091.57 194.023ZM1129.11 163.469V193H1121.57V143.909H1128.85V151.58H1129.49C1130.64 149.087 1132.39 147.084 1134.74 145.571C1137.08 144.037 1140.1 143.27 1143.81 143.27C1147.14 143.27 1150.04 143.952 1152.54 145.315C1155.03 146.658 1156.97 148.703 1158.35 151.452C1159.74 154.179 1160.43 157.631 1160.43 161.807V193H1152.89V162.318C1152.89 158.462 1151.89 155.457 1149.88 153.305C1147.88 151.132 1145.13 150.045 1141.64 150.045C1139.23 150.045 1137.08 150.567 1135.18 151.612C1133.31 152.656 1131.83 154.179 1130.74 156.182C1129.65 158.185 1129.11 160.614 1129.11 163.469ZM1193.76 143.909V150.301H1168.32V143.909H1193.76ZM1175.74 132.148H1183.28V178.938C1183.28 181.068 1183.59 182.666 1184.21 183.732C1184.85 184.776 1185.66 185.479 1186.64 185.841C1187.64 186.182 1188.69 186.352 1189.8 186.352C1190.63 186.352 1191.31 186.31 1191.85 186.224C1192.38 186.118 1192.8 186.033 1193.12 185.969L1194.66 192.744C1194.15 192.936 1193.43 193.128 1192.52 193.32C1191.6 193.533 1190.44 193.639 1189.03 193.639C1186.9 193.639 1184.81 193.181 1182.77 192.265C1180.74 191.349 1179.06 189.953 1177.72 188.078C1176.4 186.203 1175.74 183.838 1175.74 180.983V132.148ZM1217.76 194.151C1214.64 194.151 1211.82 193.565 1209.29 192.393C1206.75 191.2 1204.74 189.484 1203.25 187.247C1201.75 184.989 1201.01 182.261 1201.01 179.065C1201.01 176.253 1201.56 173.973 1202.67 172.226C1203.78 170.457 1205.26 169.072 1207.11 168.071C1208.97 167.07 1211.01 166.324 1213.25 165.834C1215.51 165.322 1217.78 164.918 1220.06 164.619C1223.04 164.236 1225.46 163.948 1227.31 163.756C1229.19 163.543 1230.55 163.192 1231.4 162.702C1232.28 162.212 1232.71 161.359 1232.71 160.145V159.889C1232.71 156.736 1231.85 154.286 1230.12 152.538C1228.42 150.791 1225.83 149.918 1222.36 149.918C1218.76 149.918 1215.93 150.706 1213.89 152.283C1211.84 153.859 1210.4 155.543 1209.57 157.332L1202.41 154.776C1203.69 151.793 1205.4 149.47 1207.53 147.808C1209.68 146.125 1212.02 144.953 1214.56 144.293C1217.12 143.611 1219.63 143.27 1222.1 143.27C1223.68 143.27 1225.49 143.462 1227.54 143.845C1229.6 144.207 1231.59 144.964 1233.51 146.114C1235.45 147.265 1237.06 149.001 1238.34 151.324C1239.62 153.646 1240.26 156.757 1240.26 160.656V193H1232.71V186.352H1232.33C1231.82 187.418 1230.97 188.558 1229.77 189.772C1228.58 190.987 1226.99 192.02 1225.01 192.872C1223.03 193.724 1220.61 194.151 1217.76 194.151ZM1218.91 187.375C1221.89 187.375 1224.4 186.789 1226.45 185.617C1228.52 184.445 1230.07 182.933 1231.11 181.079C1232.18 179.225 1232.71 177.276 1232.71 175.23V168.327C1232.39 168.71 1231.69 169.062 1230.6 169.381C1229.54 169.68 1228.3 169.946 1226.9 170.18C1225.51 170.393 1224.16 170.585 1222.84 170.756C1221.54 170.905 1220.48 171.033 1219.67 171.139C1217.71 171.395 1215.88 171.81 1214.18 172.386C1212.49 172.94 1211.13 173.781 1210.08 174.911C1209.06 176.018 1208.55 177.531 1208.55 179.449C1208.55 182.07 1209.52 184.051 1211.46 185.393C1213.42 186.714 1215.9 187.375 1218.91 187.375ZM1259.76 127.545V193H1252.22V127.545H1259.76ZM1317.15 143.909V150.301H1290.69V143.909H1317.15ZM1298.62 193V137.134C1298.62 134.321 1299.28 131.977 1300.6 130.102C1301.92 128.227 1303.63 126.821 1305.74 125.884C1307.85 124.946 1310.08 124.477 1312.42 124.477C1314.28 124.477 1315.79 124.626 1316.96 124.925C1318.13 125.223 1319.01 125.5 1319.58 125.756L1317.41 132.276C1317.03 132.148 1316.49 131.988 1315.81 131.796C1315.15 131.604 1314.28 131.509 1313.19 131.509C1310.7 131.509 1308.9 132.137 1307.79 133.394C1306.7 134.651 1306.16 136.494 1306.16 138.923V193H1298.62ZM1344.48 194.023C1339.75 194.023 1335.67 192.979 1332.24 190.891C1328.83 188.781 1326.2 185.841 1324.35 182.07C1322.52 178.277 1321.6 173.866 1321.6 168.838C1321.6 163.81 1322.52 159.378 1324.35 155.543C1326.2 151.686 1328.78 148.682 1332.08 146.53C1335.41 144.357 1339.29 143.27 1343.72 143.27C1346.27 143.27 1348.8 143.696 1351.29 144.548C1353.79 145.401 1356.05 146.786 1358.1 148.703C1360.15 150.599 1361.78 153.114 1362.99 156.246C1364.2 159.378 1364.81 163.234 1364.81 167.815V171.011H1326.97V164.491H1357.14C1357.14 161.722 1356.59 159.25 1355.48 157.077C1354.39 154.903 1352.84 153.188 1350.81 151.931C1348.81 150.674 1346.44 150.045 1343.72 150.045C1340.71 150.045 1338.11 150.791 1335.92 152.283C1333.75 153.753 1332.07 155.67 1330.9 158.036C1329.73 160.401 1329.14 162.936 1329.14 165.642V169.989C1329.14 173.696 1329.78 176.839 1331.06 179.417C1332.36 181.974 1334.16 183.923 1336.46 185.266C1338.76 186.587 1341.44 187.247 1344.48 187.247C1346.47 187.247 1348.26 186.97 1349.85 186.416C1351.47 185.841 1352.87 184.989 1354.04 183.859C1355.21 182.709 1356.12 181.281 1356.76 179.577L1364.04 181.622C1363.28 184.094 1361.99 186.267 1360.18 188.142C1358.37 189.996 1356.13 191.445 1353.47 192.489C1350.8 193.511 1347.81 194.023 1344.48 194.023ZM1395.07 194.023C1390.34 194.023 1386.26 192.979 1382.83 190.891C1379.42 188.781 1376.79 185.841 1374.93 182.07C1373.1 178.277 1372.18 173.866 1372.18 168.838C1372.18 163.81 1373.1 159.378 1374.93 155.543C1376.79 151.686 1379.36 148.682 1382.67 146.53C1385.99 144.357 1389.87 143.27 1394.3 143.27C1396.86 143.27 1399.38 143.696 1401.87 144.548C1404.37 145.401 1406.64 146.786 1408.68 148.703C1410.73 150.599 1412.36 153.114 1413.57 156.246C1414.79 159.378 1415.39 163.234 1415.39 167.815V171.011H1377.55V164.491H1407.72C1407.72 161.722 1407.17 159.25 1406.06 157.077C1404.98 154.903 1403.42 153.188 1401.4 151.931C1399.39 150.674 1397.03 150.045 1394.3 150.045C1391.3 150.045 1388.7 150.791 1386.5 152.283C1384.33 153.753 1382.66 155.67 1381.48 158.036C1380.31 160.401 1379.73 162.936 1379.73 165.642V169.989C1379.73 173.696 1380.37 176.839 1381.64 179.417C1382.94 181.974 1384.74 183.923 1387.05 185.266C1389.35 186.587 1392.02 187.247 1395.07 187.247C1397.05 187.247 1398.84 186.97 1400.44 186.416C1402.06 185.841 1403.45 184.989 1404.62 183.859C1405.8 182.709 1406.7 181.281 1407.34 179.577L1414.63 181.622C1413.86 184.094 1412.57 186.267 1410.76 188.142C1408.95 189.996 1406.71 191.445 1404.05 192.489C1401.38 193.511 1398.39 194.023 1395.07 194.023Z" fill="#B7B3B3"/>
<rect x="1453" y="786" width="608.358" height="203.56" rx="23" stroke="#D9D9D9" stroke-width="2"/>
<defs>
<filter id="filter0_i_424_5766" x="0.386719" y="0.339844" width="2129.42" height="1105.39" filterUnits="userSpaceOnUse" color-interpolation-filters="sRGB">
<feFlood flood-opacity="0" result="BackgroundImageFix"/>
<feBlend mode="normal" in="SourceGraphic" in2="BackgroundImageFix" result="shape"/>
<feColorMatrix in="SourceAlpha" type="matrix" values="0 0 0 0 0 0 0 0 0 0 0 0 0 0 0 0 0 0 127 0" result="hardAlpha"/>
<feOffset dy="4"/>
<feGaussianBlur stdDeviation="2"/>
<feComposite in2="hardAlpha" operator="arithmetic" k2="-1" k3="1"/>
<feColorMatrix type="matrix" values="0 0 0 0 0.0666667 0 0 0 0 0.0666667 0 0 0 0 0.0666667 0 0 0 0.96 0"/>
<feBlend mode="normal" in2="shape" result="effect1_innerShadow_424_5766"/>
</filter>
<filter id="filter1_i_424_5766" x="66" y="62" width="1997" height="616" filterUnits="userSpaceOnUse" color-interpolation-filters="sRGB">
<feFlood flood-opacity="0" result="BackgroundImageFix"/>
<feBlend mode="normal" in="SourceGraphic" in2="BackgroundImageFix" result="shape"/>
<feColorMatrix in="SourceAlpha" type="matrix" values="0 0 0 0 0 0 0 0 0 0 0 0 0 0 0 0 0 0 127 0" result="hardAlpha"/>
<feOffset dy="4"/>
<feGaussianBlur stdDeviation="2"/>
<feComposite in2="hardAlpha" operator="arithmetic" k2="-1" k3="1"/>
<feColorMatrix type="matrix" values="0 0 0 0 0 0 0 0 0 0 0 0 0 0 0 0 0 0 0.25 0"/>
<feBlend mode="normal" in2="shape" result="effect1_innerShadow_424_5766"/>
</filter>
</defs>
</svg>
